<svg xmlns="http://www.w3.org/2000/svg" xmlns:xlink="http://www.w3.org/1999/xlink" width="14.183" height="25" viewBox="0 0 14.183 25">
  <g id="Group_168" data-name="Group 168">
    <path id="Path_254" data-name="Path 254" fill="#2BA99D" fill-rule="evenodd" d="M3.745,24.92l-1.168-.349-.746-.755.2-.009.68.655,1.07.256.141-.232L2.86,24.306l-.638-.554-.448.009-.24-.241-.06-13.315L0,10.486l.024-.373L1.5,9.46l.292-6.815.878-.589.075,4.13,0-4.178,1.276-.86L5.279.74l.15-.175-1.5.256-1.419.9L2.5,2.034l-.7.457.042-.846L3.829.336a15.957,15.957,0,0,1,6.515,0l2,1.309.033.846-.7-.457-.008-.316-1.417-.9L8.753.566,8.9.74l1.261.406,1.276.86V6.185l.075-4.13.87.589.291,6.815,1.475.653.033.373-1.474-.28L12.65,23.518l-.241.241-.448-.009-.637.554-1.062.181.141.232,1.062-.256.688-.655.2.009-.755.755-1.161.349c-2.246.11-4.445.11-6.692,0ZM12.037,14.35l-.87-.016.008,3.15.481,1.757.291-1.826Zm-.15-5-.629,2.611-.033,1.444.755.027Zm-9.742,5,.87-.016-.009,3.15-.49,1.757-.289-1.826Zm.141-5,.638,2.611.024,1.444-.746.027Z" transform="translate(0 0)"/>
  </g>
</svg>
