<?xml version="1.0" encoding="UTF-8"?>
<svg id="Layer_2" xmlns="http://www.w3.org/2000/svg" viewBox="0 0 80 78.1">
  <g id="Layer_1-2" data-name="Layer_1">
    <path d="M79.9,17c0-.1-.1-.2-.1-.3-.1-.1-.1-.2-.2-.3-.1-.1-.2-.2-.3-.3-.1-.1-.2-.1-.3-.2-.1-.1-.2-.1-.4-.1-.1,0-.1-.1-.2-.1H22l-2.7-14.2c0-.1-.1-.1-.1-.2s-.1-.2-.1-.4c-.1-.1-.1-.2-.2-.3s-.2-.2-.2-.3c-.1-.1-.2-.2-.3-.2-.1,0-.2,0-.3,0s-.3-.1-.4-.1H1.9C.8,0,0,.9,0,1.9s.9,1.9,1.9,1.9h14l8.5,45.1h-2.3c-4.4,0-7.9,3.6-7.9,7.9s3.6,7.9,7.9,7.9h1.5c-.9,1.4-1.5,3-1.5,4.8,0,4.8,3.9,8.6,8.6,8.6s8.6-3.9,8.6-8.6c0-1.8-.5-3.5-1.5-4.8h15.3c-.9,1.4-1.5,3-1.5,4.8,0,4.8,3.9,8.6,8.6,8.6s8.6-3.9,8.6-8.6c0-1.8-.5-3.5-1.5-4.8h4.6c1.1,0,1.9-.9,1.9-1.9s-.9-1.9-1.9-1.9H22.1c-2.3,0-4.1-1.9-4.1-4.1s1.9-4.1,4.1-4.1h49.7c.9,0,1.7-.7,1.9-1.6l6.3-33.2v-.6c-.1-.1-.1-.2-.1-.3ZM60.4,64.8c2.7,0,4.8,2.2,4.8,4.8s-2.2,4.8-4.8,4.8-4.8-2.2-4.8-4.8,2.2-4.8,4.8-4.8ZM30.8,64.8c2.7,0,4.8,2.2,4.8,4.8s-2.2,4.8-4.8,4.8-4.8-2.2-4.8-4.8c-.1-2.7,2.1-4.8,4.8-4.8ZM70.2,48.9H28.3l-5.6-29.4h53l-5.5,29.4Z"/>
  </g>
</svg>