<?xml version="1.0" encoding="UTF-8"?>
<svg id="Layer_2" xmlns="http://www.w3.org/2000/svg" viewBox="0 0 318.07 317.9">
  <defs>
    <style>
      .cls-1 {
        fill: #6dbf4d;
      }

      .cls-2 {
        fill: #2c2864;
      }
    </style>
  </defs>
  <g id="Layer_1-2" data-name="Layer_1">
    <g>
      <path class="cls-1" d="M300.51,1.6c1.91,3.35-4.22,8.52-7.12,10.89-43.25,34.64-86.89,68.86-129.69,104.04-12.79,10.88-27.31,22.08-45.02,17.88-6.11-1.27-12.45-4.25-18.06-7.26-24.76-13.68-49.9-26.48-74.98-39.56-5.61-3.35-16.62-6.45-16.96-13.85.86-8.33,15.82-8.64,22.28-10.78C118.09,41.57,207.16,23.69,293.14.25c3.39-.56,6.31-.22,7.32,1.27l.06.08Z"/>
      <path class="cls-1" d="M316.19,15.67c5.56,4.3-2.82,17.55-4.6,23.05-37.54,89.78-75.34,179.46-113.04,269.17-1.59,4.09-5.18,10.72-9.47,9.94-3.9-.59-6.2-6.76-7.18-10.75-10.98-43.24-22.4-86.3-33.02-129.66-.71-3.44-1.23-6.91-1.35-10.27-1.04-17.48,11.37-28.1,24.04-37.95,44.43-35.75,88.18-72.36,132.2-108.62,3.13-2.65,8.85-7.01,12.32-4.97l.1.06Z"/>
      <path class="cls-2" d="M164.85,313.16c-4.38,1.69-9.17-5.73-11.8-9.14C105.59,240.55,58,177.14,10.67,113.58c-3.32-5.26-14.06-14.55-9.61-20.67,2.56-2.93,8.46-1.11,11.89.76,30.35,16.14,60.61,32.25,91.06,48.27,4.63,2.46,9.36,5.08,13.52,8.23,12.47,8.95,17.27,22.71,20.36,37.17,8.87,37.4,18.59,74.6,27.78,111.9.92,4.06,2.83,11.46-.73,13.88l-.1.05Z"/>
    </g>
  </g>
</svg>