<?xml version="1.0" encoding="utf-8"?>
<!-- Generator: Adobe Illustrator 26.4.1, SVG Export Plug-In . SVG Version: 6.00 Build 0)  -->
<svg version="1.1" id="Layer_1" xmlns="http://www.w3.org/2000/svg" xmlns:xlink="http://www.w3.org/1999/xlink" x="0px" y="0px"
	 viewBox="0 0 605 237.5" style="enable-background:new 0 0 605 237.5;" xml:space="preserve">
<style type="text/css">
	.st0{fill:#0061AF;}
	.st1{fill:#231F20;}
	
		.st2{clip-path:url(#SVGID_00000099628326380863512200000005765979601078980253_);fill:url(#SVGID_00000024695875635268918300000000418200824629688466_);}
	
		.st3{clip-path:url(#SVGID_00000085968207677074906750000001535615621615397257_);fill:url(#SVGID_00000172409024446308132740000015442447125679455895_);}
	
		.st4{clip-path:url(#SVGID_00000181771267850667230080000014307342072155719356_);fill:url(#SVGID_00000136400672018418003600000013682882240696486029_);}
	
		.st5{clip-path:url(#SVGID_00000162353480088613488870000014691513631247886521_);fill:url(#SVGID_00000054238813104337129440000005405760728517583005_);}
	
		.st6{clip-path:url(#SVGID_00000181777523096450689000000000199956970730595241_);fill:url(#SVGID_00000157279819924192784140000015305241979322703017_);}
	
		.st7{clip-path:url(#SVGID_00000054968587355469411280000010322351675787906718_);fill:url(#SVGID_00000111186900626061623930000002661021734136365473_);}
	
		.st8{clip-path:url(#SVGID_00000018203800220755007630000010422095310679857317_);fill:url(#SVGID_00000053517967418595882590000010249413278478801583_);}
	
		.st9{clip-path:url(#SVGID_00000153663358877910208880000007177768479449770402_);fill:url(#SVGID_00000127023095378283743500000003984085273885028540_);}
	
		.st10{clip-path:url(#SVGID_00000035504968661859669640000000009021734390549929_);fill:url(#SVGID_00000076576161390181541630000014663376960098977206_);}
	
		.st11{clip-path:url(#SVGID_00000088128435968687284070000009132098279519659439_);fill:url(#SVGID_00000141422600166305052420000015148980811411208064_);}
	
		.st12{clip-path:url(#SVGID_00000098905059574513271120000017698464349180012978_);fill:url(#SVGID_00000094606611936147932530000005752801960937419711_);}
	
		.st13{clip-path:url(#SVGID_00000093898402245740136110000017865589599429943168_);fill:url(#SVGID_00000174567764184295009060000005840689914873035437_);}
	
		.st14{clip-path:url(#SVGID_00000145776926078032573540000017722952788450164403_);fill:url(#SVGID_00000016049338817916273430000016849064866681234819_);}
	
		.st15{clip-path:url(#SVGID_00000063618707095009480200000006878549829328195492_);fill:url(#SVGID_00000063607262077579859290000011859369066739485617_);}
	
		.st16{clip-path:url(#SVGID_00000096760076592241269750000000381282045543445653_);fill:url(#SVGID_00000073685890848582770170000004611030245596678046_);}
	
		.st17{clip-path:url(#SVGID_00000168082657409812690620000001786162411900311181_);fill:url(#SVGID_00000009567626774468872250000012913066808953010307_);}
	.st18{fill:#00A399;}
</style>
<g>
	<g>
		<path class="st0" d="M31,188.2h7.6l0.2,13.4c0,1.2-0.2,2.4-0.2,2.4h0.1c0,0,0.3-1.1,0.8-2.4l5.8-13.4h6.4l0.5,13.4
			c0,0.8-0.1,2.4-0.1,2.4h0.1c0,0,0.2-1.1,0.7-2.4l5.4-13.4h8.1l-10.8,22.7h-8.5l-0.5-10.5c0-1.2,0-2.4,0-2.4h-0.1
			c0,0-0.4,1.2-0.9,2.4l-4.6,10.5H33L31,188.2z"/>
		<path class="st0" d="M69.2,188.2h7.6l-4.4,22.7h-7.6L69.2,188.2z M71,179.4h7.5l-1.1,6h-7.5L71,179.4z"/>
		<path class="st0" d="M80.1,202.1l1.5-7.5h-2.9l1.1-6H83l1.3-6.5h7.3l-1.3,6.5h4.8l-1.1,6h-4.8L88,201c-0.1,0.4-0.1,1-0.1,1.2
			c0,1.9,1.7,2.2,3.4,2.2c0.7,0,1.2,0,1.2,0l-1.3,6.6c0,0-1.1,0.1-2,0.1c-5,0-9.2-2-9.2-7.3C79.9,203.3,80,202.7,80.1,202.1"/>
		<path class="st0" d="M101,179.4h7.6l-1.9,10c-0.2,1.1-0.4,1.9-0.4,1.9h0.1c1.3-2,4.3-3.6,7.2-3.6c3.9,0,7.2,1.7,7.2,6.4
			c0,0.8-0.1,1.6-0.3,2.5l-2.8,14.3H110l2.6-13.1c0.1-0.5,0.1-1,0.1-1.3c0-1.4-0.7-1.9-2-1.9c-3,0-5.6,3-6.2,6.3l-1.9,10.1h-7.6
			L101,179.4z"/>
		<path class="st0" d="M138.9,179.5H157c2.8,0,5.2,0.5,7.2,1.5c4.4,2.1,6.9,6.5,6.9,12c0,7.9-4.5,14.7-10.9,17.7
			c-2.3,1.1-4.8,1.6-7.3,1.6h-8.8l-2.8,14.6h-11.6L138.9,179.5z M151.7,202.3c1.5,0,2.8-0.3,3.9-1c2.2-1.5,3.6-4.2,3.6-7.3
			c0-2.8-1.6-4.6-4.8-4.6h-5.8l-2.5,12.8H151.7z"/>
		<path class="st0" d="M176,192.8h11l-1.1,5.8c-0.2,1.1-0.5,2.1-0.5,2.1h0.1c2.2-4.6,7-8.5,11.9-8.5c1.1,0,2,0.1,2,0.1l-2.2,11.3
			c0,0-0.9-0.2-2.2-0.2c-3.4,0-9.9,2.7-11.7,11.9l-2.3,11.6h-11.5L176,192.8z"/>
		<path class="st0" d="M218.7,192c10.3,0,17.7,6,17.7,15.3c0,12-10.7,20.4-21.2,20.4c-10.3,0-17.7-6-17.7-15.3
			C197.5,200.4,208.1,192,218.7,192 M215.4,218.1c4.6,0,9.5-3.9,9.5-10.1c0-4-2.6-6.5-6.2-6.5c-4.5,0-9.5,4.1-9.5,10.3
			C209.1,215.8,211.7,218.1,215.4,218.1"/>
		<polygon class="st0" points="242.8,202.9 263.6,202.9 261.7,212.8 240.9,212.8 		"/>
		<path class="st0" d="M276.7,179.5h15.2c13.7,0,21.9,6.9,21.9,18.7c0,15.8-11.4,28.6-27.7,28.6h-18.5L276.7,179.5z M285.8,216.9
			c9.7,0,16-7.9,16-17.6c0-6.5-4-9.9-10.7-9.9h-4.8l-5.4,27.5H285.8z"/>
		<path class="st0" d="M321.2,192.8h11l-1.1,5.8c-0.2,1.1-0.5,2.1-0.5,2.1h0.1c2.2-4.6,7-8.5,11.8-8.5c1.1,0,2,0.1,2,0.1l-2.2,11.3
			c0,0-0.9-0.2-2.3-0.2c-3.4,0-9.9,2.7-11.7,11.9l-2.3,11.6h-11.5L321.2,192.8z"/>
		<path class="st0" d="M348.6,192.8H360l-6.6,34.1H342L348.6,192.8z M351.3,179.5h11.2l-1.7,8.9h-11.2L351.3,179.5z"/>
		<path class="st0" d="M363,192.8h11.3l1.7,18.1c0.1,1.1,0.1,5.9,0.1,5.9h0.1c0,0,1.3-3.6,2.4-5.9l8.8-18.1h12.1l-18.3,34.1h-13.2
			L363,192.8z"/>
		<path class="st0" d="M416.7,192c9.7,0,14.6,5.5,14.6,13.4c0,3.1-1.3,6.7-1.3,6.7h-21.5c0,3.8,2.5,6.1,6.7,6.1
			c5,0,10.1-3.4,10.1-3.4l2.9,8.5c0,0-6,4.4-13.8,4.4c-11.7,0-17.4-6.9-17.4-14.9C397,200.9,405.4,192,416.7,192 M420,205.5
			c0,0,0.1-0.8,0.1-1.2c0-2.1-1.3-3.7-3.6-3.7c-3.3,0-5.4,2.2-6.5,4.9H420z"/>
		<path class="st1" d="M519.1,84.7c-3.8-5.5-11.7-8.1-24-8.1c-0.3,0-0.7,0-1.1,0c-25.7,0.3-38.8,8.9-46.6,30.5
			c-2,5.6-4.2,13.6-0.3,19.2c2.9,4.1,8.6,6.2,17,6.2c5.8,0,11.5-1.4,16-3.8l-1.4,3.8c-2.7,7.5-4.1,9.5-8.5,9.5
			c-2.5,0-3.2-0.6-3.3-0.8c-0.3-0.4-0.1-1.1,0.1-1.7l0.9-2.5l0.6-1.8h-1.9h-26.4h-1l-0.3,0.9c-2.1,6.8-1.9,11.8,0.7,15.4
			c3.6,4.9,11.3,7,25.9,7c35.6,0,42.9-20.1,51.3-43.5C520.9,103.8,524.4,92.2,519.1,84.7 M490.2,103.1c-2.7,7.5-3.9,11-9.6,11
			c-1.1,0-2.6-0.1-3.1-0.8c-0.9-1.3,0.4-5,2-9.2c2.7-7.5,3.9-10.9,9.5-10.9c1.1,0,2.6,0.2,3.1,0.8
			C493.1,95.2,491.8,98.9,490.2,103.1 M495.1,78c0.2,0,0.3,0,0.5,0c-0.5,0-1,0-1.5,0H495.1z"/>
		<path class="st1" d="M595.5,78.2h-59.8h-0.9l-0.3,0.8l-17.2,43.3l-0.7,1.8h2H544h0.9l0.3-0.9c0.9-2.5,3.2-5.3,7-5.3
			c1.4,0,2.3,0.3,2.6,0.7c1,1.5-0.8,6.6-2.3,10.8c-3.5,9.7-4.7,12.5-9.9,12.5c-1.6,0-2.1-0.6-2.2-0.8c-0.7-1-0.5-3.1,0.5-5.9
			l1.1-3.1l0.6-1.8h-1.9h-26.4h-1l-0.3,0.9l-1.1,3.1c-2.4,6.7-2.2,12.1,0.6,16.1c5,7.1,16.7,8,26.4,8c24.2,0,37.1-8.4,44.6-29.2
			c2.9-8,5.3-17,1.2-22.8c-3-4.2-9.2-6.3-18.9-6.3c-5.9,0-12.2,1.7-16.8,4.4l3.1-7.3h37.4h1l0.3-0.9l5.9-16.4l0.6-1.8H595.5z"/>
		<g>
			<defs>
				<path id="SVGID_1_" d="M476.2,103.4c2.8-7.9,4.7-13.9,14.4-13.3c6.6,0.4,6.1,4.6,3.1,13.4c-2.6,7.6-5.1,13.6-12.6,13.6
					C470.7,117.2,473.2,111.8,476.2,103.4 M451.6,107.3c-3.5,9.6-6.9,22.6,14.8,21.6c6.6-0.3,12.1-2.6,17.1-6.3h1.9l-3.2,10.5
					c-2.8,8.1-5.2,12-11.1,12.2c-9.2,0.2-8.6-3.5-7.7-6.2l0.1-0.5h-21.4c-3.7,13.7,5.9,16.9,26.4,16.4c28.6-0.7,36.5-17.5,44.9-40.6
					c7.5-20.6,8.9-34.1-16.9-34.4c-0.5,0-1.1,0-1.6,0C469.5,80,458.6,87.9,451.6,107.3"/>
			</defs>
			<clipPath id="SVGID_00000012470887186065999700000018075548470309476024_">
				<use xlink:href="#SVGID_1_"  style="overflow:visible;"/>
			</clipPath>
			
				<linearGradient id="SVGID_00000075853089670876499780000015808336772649781943_" gradientUnits="userSpaceOnUse" x1="-60.3908" y1="384.1036" x2="-58.9709" y2="384.1036" gradientTransform="matrix(-2.307568e-09 -51.3974 -51.3974 2.307568e-09 20222.3672 -2949.5293)">
				<stop  offset="0" style="stop-color:#FFDD00"/>
				<stop  offset="0.2" style="stop-color:#F58A1F"/>
				<stop  offset="0.2611" style="stop-color:#F49822"/>
				<stop  offset="0.3762" style="stop-color:#F1BC2B"/>
				<stop  offset="0.4944" style="stop-color:#EDE836"/>
				<stop  offset="0.5478" style="stop-color:#F1DC2D"/>
				<stop  offset="0.687" style="stop-color:#F9C21A"/>
				<stop  offset="0.7697" style="stop-color:#FCB813"/>
				<stop  offset="0.8755" style="stop-color:#FBB315"/>
				<stop  offset="0.9942" style="stop-color:#F9A61A"/>
				<stop  offset="1" style="stop-color:#F9A51A"/>
			</linearGradient>
			
				<rect x="438.5" y="80" style="clip-path:url(#SVGID_00000012470887186065999700000018075548470309476024_);fill:url(#SVGID_00000075853089670876499780000015808336772649781943_);" width="83.9" height="75.5"/>
		</g>
		<g>
			<defs>
				<path id="SVGID_00000103257450052084477250000000255996727044734600_" d="M537.2,81.7l-15.5,39h21c1-1.9,3.8-6.3,10.7-5.9
					c6.8,0.5,6.1,5.3,2.6,15.1c-3.6,10.3-5.5,15.5-14.6,15.4c-6.8-0.1-5.2-7.4-4.1-10.4l0.4-1.2h-22l-0.4,1.2
					c-6.9,19.4,11.7,20.6,25.3,20.5c17.7-0.2,32.1-6.4,39.5-26.8c6.3-17.5,3.6-25.1-12.6-25.4c-10.4-0.1-16.9,3.3-20.9,7.3h-3.9
					l7-16.4H588l4.3-12.3H537.2z"/>
			</defs>
			<clipPath id="SVGID_00000124129370765714990860000012332863807138023090_">
				<use xlink:href="#SVGID_00000103257450052084477250000000255996727044734600_"  style="overflow:visible;"/>
			</clipPath>
			
				<linearGradient id="SVGID_00000056394903607389990740000002913459362635103144_" gradientUnits="userSpaceOnUse" x1="-60.396" y1="383.7375" x2="-58.9758" y2="383.7375" gradientTransform="matrix(-2.307712e-09 -51.4006 -51.4006 2.307712e-09 20274.7793 -2949.9595)">
				<stop  offset="0" style="stop-color:#FFDD00"/>
				<stop  offset="0.2" style="stop-color:#F58A1F"/>
				<stop  offset="0.2611" style="stop-color:#F49822"/>
				<stop  offset="0.3762" style="stop-color:#F1BC2B"/>
				<stop  offset="0.4944" style="stop-color:#EDE836"/>
				<stop  offset="0.5478" style="stop-color:#F1DC2D"/>
				<stop  offset="0.687" style="stop-color:#F9C21A"/>
				<stop  offset="0.7697" style="stop-color:#FCB813"/>
				<stop  offset="0.8755" style="stop-color:#FBB315"/>
				<stop  offset="0.9942" style="stop-color:#F9A61A"/>
				<stop  offset="1" style="stop-color:#F9A51A"/>
			</linearGradient>
			
				<rect x="508.6" y="81.7" style="clip-path:url(#SVGID_00000124129370765714990860000012332863807138023090_);fill:url(#SVGID_00000056394903607389990740000002913459362635103144_);" width="83.8" height="73.9"/>
		</g>
		<g>
			<defs>
				<polygon id="SVGID_00000147196666768668243010000008179875123615201469_" points="395.9,144 403.8,158.6 431.6,158.6 
					428.4,153.3 411.4,125.5 				"/>
			</defs>
			<clipPath id="SVGID_00000095317769969164849050000001257127852457221251_">
				<use xlink:href="#SVGID_00000147196666768668243010000008179875123615201469_"  style="overflow:visible;"/>
			</clipPath>
			
				<linearGradient id="SVGID_00000064355207444194973850000007478228120981874597_" gradientUnits="userSpaceOnUse" x1="-61.6482" y1="383.1874" x2="-60.228" y2="383.1874" gradientTransform="matrix(-2.082165e-09 -46.3769 -46.3769 2.082165e-09 18184.793 -2700.4385)">
				<stop  offset="0" style="stop-color:#2E3191"/>
				<stop  offset="0.1404" style="stop-color:#2E3191"/>
				<stop  offset="0.288" style="stop-color:#2483C5"/>
				<stop  offset="0.3828" style="stop-color:#2472BA"/>
				<stop  offset="0.6871" style="stop-color:#224099"/>
				<stop  offset="0.9551" style="stop-color:#2483C5"/>
				<stop  offset="1" style="stop-color:#2483C5"/>
			</linearGradient>
			
				<rect x="395.9" y="125.5" style="clip-path:url(#SVGID_00000095317769969164849050000001257127852457221251_);fill:url(#SVGID_00000064355207444194973850000007478228120981874597_);" width="35.7" height="33.1"/>
		</g>
		<g>
			<defs>
				<polygon id="SVGID_00000109024074640648776090000009856369092729274501_" points="398.2,141.3 405.7,155 425.1,155 409,128.4 
									"/>
			</defs>
			<clipPath id="SVGID_00000134949590470380500930000010645997492076449459_">
				<use xlink:href="#SVGID_00000109024074640648776090000009856369092729274501_"  style="overflow:visible;"/>
			</clipPath>
			
				<linearGradient id="SVGID_00000176726357982842109390000007501731807574528166_" gradientUnits="userSpaceOnUse" x1="-63.0052" y1="381.9997" x2="-61.5848" y2="381.9997" gradientTransform="matrix(-1.876660e-09 -41.7996 -41.7996 1.876660e-09 16379.1074 -2478.5784)">
				<stop  offset="0" style="stop-color:#045BA7"/>
				<stop  offset="0.1404" style="stop-color:#045BA7"/>
				<stop  offset="0.5225" style="stop-color:#1A94D2"/>
				<stop  offset="0.5755" style="stop-color:#178DCD"/>
				<stop  offset="1" style="stop-color:#045BA7"/>
			</linearGradient>
			
				<rect x="398.2" y="128.4" style="clip-path:url(#SVGID_00000134949590470380500930000010645997492076449459_);fill:url(#SVGID_00000176726357982842109390000007501731807574528166_);" width="26.9" height="26.6"/>
		</g>
		<g>
			<defs>
				<path id="SVGID_00000056392316486500360820000017695372538973741214_" d="M334.6,107.8h2.9l0.2,25.9H321L334.6,107.8z
					 M271.4,92.8c-11.1,16.4-25.2,37.6-25.2,37.6s2.4-23,3.7-37.6h-29.7L182,158.6h25.2l21.8-40.6l-4.4,40.6h21.1l27.3-40.6
					l-11.3,40.6h46.1l5.3-10.3h24.7l0.2,10.3h40.9l3.6-3.6h-22.2l-2.9-62.2h-35.8l-33.1,54.3L300,92.8H271.4z"/>
			</defs>
			<clipPath id="SVGID_00000037683727562825022540000001374406016621347742_">
				<use xlink:href="#SVGID_00000056392316486500360820000017695372538973741214_"  style="overflow:visible;"/>
			</clipPath>
			
				<linearGradient id="SVGID_00000160166836433687354440000007802968707722250659_" gradientUnits="userSpaceOnUse" x1="-61.6599" y1="384.2432" x2="-60.24" y2="384.2432" gradientTransform="matrix(-2.081904e-09 -46.3711 -46.3711 2.081904e-09 18099.9531 -2700.6233)">
				<stop  offset="0" style="stop-color:#2E3191"/>
				<stop  offset="0.1404" style="stop-color:#2E3191"/>
				<stop  offset="0.288" style="stop-color:#2483C5"/>
				<stop  offset="0.3828" style="stop-color:#2472BA"/>
				<stop  offset="0.6871" style="stop-color:#224099"/>
				<stop  offset="0.9551" style="stop-color:#2483C5"/>
				<stop  offset="1" style="stop-color:#2483C5"/>
			</linearGradient>
			
				<rect x="182" y="92.8" style="clip-path:url(#SVGID_00000037683727562825022540000001374406016621347742_);fill:url(#SVGID_00000160166836433687354440000007802968707722250659_);" width="200.4" height="65.8"/>
		</g>
		<g>
			<defs>
				<path id="SVGID_00000128466493171192369740000012963277591207254192_" d="M52.4,107.8h21.8l-5.1,15.1H47.4L52.4,107.8z
					 M34.5,92.8c-5.4,16-22.2,65.8-22.2,65.8h23.1l6.8-20.3h24.4c21,0,23.2-4.4,28.6-22.6c4.2-13.9-0.6-23-14.7-23H34.5z"/>
			</defs>
			<clipPath id="SVGID_00000157284387049323626250000013342772941753887145_">
				<use xlink:href="#SVGID_00000128466493171192369740000012963277591207254192_"  style="overflow:visible;"/>
			</clipPath>
			
				<linearGradient id="SVGID_00000113338926171380953320000005372792579337135513_" gradientUnits="userSpaceOnUse" x1="-60.9935" y1="387.4556" x2="-59.5739" y2="387.4556" gradientTransform="matrix(-5.5057 -49.0266 -49.0266 2.201127e-09 18719.748 -2828.2273)">
				<stop  offset="0" style="stop-color:#2E3191"/>
				<stop  offset="0.1404" style="stop-color:#2E3191"/>
				<stop  offset="0.288" style="stop-color:#2483C5"/>
				<stop  offset="0.3828" style="stop-color:#2472BA"/>
				<stop  offset="0.6871" style="stop-color:#224099"/>
				<stop  offset="0.9551" style="stop-color:#2483C5"/>
				<stop  offset="1" style="stop-color:#2483C5"/>
			</linearGradient>
			
				<polygon style="clip-path:url(#SVGID_00000157284387049323626250000013342772941753887145_);fill:url(#SVGID_00000113338926171380953320000005372792579337135513_);" points="
				12.3,158.6 4.9,92.8 99.4,92.8 106.8,158.6 			"/>
		</g>
		<g>
			<defs>
				<path id="SVGID_00000165203831324088260020000006240240913532736682_" d="M49.6,104.9H74h5l-7,20.9H42.5L49.6,104.9z M36.9,95.7
					l-20,59.3h15.9c1-3,6.8-20.3,6.8-20.3h26.5c18.9,0,20.5-2.5,25.8-20.6c1.2-3.7,1.5-7,1.2-9.8c-0.2-2.1-0.9-3.7-1.9-5
					c-2-2.5-5.5-3.7-10.5-3.7H36.9z"/>
			</defs>
			<clipPath id="SVGID_00000069383891335750766500000014685810288205599678_">
				<use xlink:href="#SVGID_00000165203831324088260020000006240240913532736682_"  style="overflow:visible;"/>
			</clipPath>
			
				<linearGradient id="SVGID_00000129171165965055171950000014322208330389600901_" gradientUnits="userSpaceOnUse" x1="-63.0059" y1="386.2802" x2="-61.5861" y2="386.2802" gradientTransform="matrix(-4.6941 -41.7996 -41.7996 1.876660e-09 15909.0273 -2478.5784)">
				<stop  offset="0" style="stop-color:#005AA9"/>
				<stop  offset="0.1404" style="stop-color:#005AA9"/>
				<stop  offset="0.5225" style="stop-color:#1E94D2"/>
				<stop  offset="0.5825" style="stop-color:#1A8CCD"/>
				<stop  offset="1" style="stop-color:#005AA9"/>
			</linearGradient>
			
				<polygon style="clip-path:url(#SVGID_00000069383891335750766500000014685810288205599678_);fill:url(#SVGID_00000129171165965055171950000014322208330389600901_);" points="
				16.8,155 10.2,95.7 93.3,95.7 100,155 			"/>
		</g>
		<g>
			<defs>
				<path id="SVGID_00000096747117905477959200000015306576746352560267_" d="M331.9,104.9h8.4l0.5,31.8h-25.4L331.9,104.9z
					 M323.4,95.7c-1.6,2.6-33,54.4-33,54.4h-6c0,0,10.1-47.7,11.4-54.4H273l-27.9,41.8h-3l4-41.8h-24.2L187.5,155h17.6l22.6-42.2h5
					l-4.5,42.2h15.7l28.2-42.2h5.7c0,0-10,35.5-11.9,42.2h39.5c1.1-2.2,5.3-10.2,5.3-10.2h30.2c0,0,0.1,7.2,0.2,10.2h15.8l-2.6-59.3
					H323.4z"/>
			</defs>
			<clipPath id="SVGID_00000170972089678343823310000005780711595558057095_">
				<use xlink:href="#SVGID_00000096747117905477959200000015306576746352560267_"  style="overflow:visible;"/>
			</clipPath>
			
				<linearGradient id="SVGID_00000095300151899677690630000000359867046411651255_" gradientUnits="userSpaceOnUse" x1="-63.0059" y1="384.7367" x2="-61.5861" y2="384.7367" gradientTransform="matrix(-4.6941 -41.7996 -41.7996 1.876660e-09 16061.5273 -2478.5784)">
				<stop  offset="0" style="stop-color:#005AA9"/>
				<stop  offset="0.1404" style="stop-color:#005AA9"/>
				<stop  offset="0.5225" style="stop-color:#1E94D2"/>
				<stop  offset="0.5825" style="stop-color:#1A8CCD"/>
				<stop  offset="1" style="stop-color:#005AA9"/>
			</linearGradient>
			
				<polygon style="clip-path:url(#SVGID_00000170972089678343823310000005780711595558057095_);fill:url(#SVGID_00000095300151899677690630000000359867046411651255_);" points="
				187.5,155 180.8,95.7 356.8,95.7 363.4,155 			"/>
		</g>
		<g>
			<defs>
				<polygon id="SVGID_00000083071598697404529080000013918848068461776782_" points="181.5,92.8 155.2,158.6 179.8,158.6 
					206.2,92.8 				"/>
			</defs>
			<clipPath id="SVGID_00000093875522656795908760000004950316698651438774_">
				<use xlink:href="#SVGID_00000083071598697404529080000013918848068461776782_"  style="overflow:visible;"/>
			</clipPath>
			
				<linearGradient id="SVGID_00000159439006573826253800000002427748732880507583_" gradientUnits="userSpaceOnUse" x1="-61.625" y1="384.9207" x2="-60.2053" y2="384.9207" gradientTransform="matrix(-2.085801e-09 -46.4579 -46.4579 2.085801e-09 18063.3438 -2704.3584)">
				<stop  offset="0" style="stop-color:#2E3191"/>
				<stop  offset="0.1404" style="stop-color:#2E3191"/>
				<stop  offset="0.288" style="stop-color:#2483C5"/>
				<stop  offset="0.3828" style="stop-color:#2472BA"/>
				<stop  offset="0.6871" style="stop-color:#224099"/>
				<stop  offset="0.9551" style="stop-color:#2483C5"/>
				<stop  offset="1" style="stop-color:#2483C5"/>
			</linearGradient>
			
				<rect x="155.2" y="92.8" style="clip-path:url(#SVGID_00000093875522656795908760000004950316698651438774_);fill:url(#SVGID_00000159439006573826253800000002427748732880507583_);" width="51" height="65.8"/>
		</g>
		<g>
			<defs>
				<polygon id="SVGID_00000100385127428343594710000008471329398369708715_" points="183.9,95.7 160.3,155 177.1,155 201.7,95.7 
									"/>
			</defs>
			<clipPath id="SVGID_00000132052665824512351890000009375067559301285310_">
				<use xlink:href="#SVGID_00000100385127428343594710000008471329398369708715_"  style="overflow:visible;"/>
			</clipPath>
			
				<linearGradient id="SVGID_00000080928282174582291630000017723310160022048162_" gradientUnits="userSpaceOnUse" x1="-59.32" y1="387.8332" x2="-57.9006" y2="387.8332" gradientTransform="matrix(-6.4197 -57.1652 -57.1652 2.566523e-09 21975.666 -3221.6934)">
				<stop  offset="0" style="stop-color:#005AA9"/>
				<stop  offset="0.1404" style="stop-color:#005AA9"/>
				<stop  offset="0.5225" style="stop-color:#1E94D2"/>
				<stop  offset="0.5825" style="stop-color:#1A8CCD"/>
				<stop  offset="1" style="stop-color:#005AA9"/>
			</linearGradient>
			
				<polygon style="clip-path:url(#SVGID_00000132052665824512351890000009375067559301285310_);fill:url(#SVGID_00000080928282174582291630000017723310160022048162_);" points="
				160.3,155 153.6,95.7 201.7,95.7 208.3,155 			"/>
		</g>
		<g>
			<defs>
				<path id="SVGID_00000021086018689793139540000005866569603770588574_" d="M125.2,107.8h21.8l-5.1,15.1H120L125.2,107.8z
					 M107.2,92.8l-22.3,65.8H108l9.3-27.6l15.7,27.6h24.8l-13.7-20.4c16.7-0.8,18.9-6.1,23.8-22.5c4.2-13.9-0.6-23-14.7-23H107.2z"
					/>
			</defs>
			<clipPath id="SVGID_00000072979813185445586810000002141119541710653834_">
				<use xlink:href="#SVGID_00000021086018689793139540000005866569603770588574_"  style="overflow:visible;"/>
			</clipPath>
			
				<linearGradient id="SVGID_00000059284410729791986640000003368589222987790516_" gradientUnits="userSpaceOnUse" x1="-61.0217" y1="387.0086" x2="-59.6021" y2="387.0086" gradientTransform="matrix(-5.4916 -48.9014 -48.9014 2.195506e-09 18722.7285 -2822.2153)">
				<stop  offset="0" style="stop-color:#2E3191"/>
				<stop  offset="0.1404" style="stop-color:#2E3191"/>
				<stop  offset="0.288" style="stop-color:#2483C5"/>
				<stop  offset="0.3828" style="stop-color:#2472BA"/>
				<stop  offset="0.6871" style="stop-color:#224099"/>
				<stop  offset="0.9551" style="stop-color:#2483C5"/>
				<stop  offset="1" style="stop-color:#2483C5"/>
			</linearGradient>
			
				<polygon style="clip-path:url(#SVGID_00000072979813185445586810000002141119541710653834_);fill:url(#SVGID_00000059284410729791986640000003368589222987790516_);" points="
				84.9,158.6 77.5,92.8 172.1,92.8 179.5,158.6 			"/>
		</g>
		<g>
			<defs>
				<path id="SVGID_00000022526016362600308500000016178338324724108472_" d="M109.6,95.7c-1.1,3.4-17.5,51.7-20.1,59.3h15.9
					c0.9-2.6,7.3-21.6,9.8-29.2l0.6-1.8c0,0,0,0,0-0.1l0.2-0.6c0.1-0.4,0.2-0.6,0.2-0.6l6-17.9h24.4h5l-7,20.9h-26.6
					c4.3,7.6,15.1,26.6,16.6,29.2h17.1c-0.2-0.4-13.6-20.3-13.6-20.3l5,0c14.6-0.7,16.3-3.4,21.4-20.5c1.1-3.7,1.5-7,1.2-9.8
					c-0.2-2.1-0.9-3.7-1.9-5c-1.9-2.5-5.5-3.7-10.5-3.7H109.6z"/>
			</defs>
			<clipPath id="SVGID_00000076562608599362269410000004874461054596022150_">
				<use xlink:href="#SVGID_00000022526016362600308500000016178338324724108472_"  style="overflow:visible;"/>
			</clipPath>
			
				<linearGradient id="SVGID_00000025429521654824720120000016415753953424663705_" gradientUnits="userSpaceOnUse" x1="-63.0059" y1="385.7658" x2="-61.5861" y2="385.7658" gradientTransform="matrix(-4.6941 -41.7996 -41.7996 1.876660e-09 15960.2139 -2478.5784)">
				<stop  offset="0" style="stop-color:#005AA9"/>
				<stop  offset="0.1404" style="stop-color:#005AA9"/>
				<stop  offset="0.5225" style="stop-color:#1E94D2"/>
				<stop  offset="0.5825" style="stop-color:#1A8CCD"/>
				<stop  offset="1" style="stop-color:#005AA9"/>
			</linearGradient>
			
				<polygon style="clip-path:url(#SVGID_00000076562608599362269410000004874461054596022150_);fill:url(#SVGID_00000025429521654824720120000016415753953424663705_);" points="
				89.5,155 82.8,95.7 166.1,95.7 172.8,155 			"/>
		</g>
		<g>
			<defs>
				<polygon id="SVGID_00000132077349271397109330000002293784555389105575_" points="365.9,92.8 382.1,120.4 400.6,106 393.7,92.8 
									"/>
			</defs>
			<clipPath id="SVGID_00000152968892579783078890000005505671076199098512_">
				<use xlink:href="#SVGID_00000132077349271397109330000002293784555389105575_"  style="overflow:visible;"/>
			</clipPath>
			
				<linearGradient id="SVGID_00000151525420792318058650000010119311516622776750_" gradientUnits="userSpaceOnUse" x1="-28.5223" y1="371.1246" x2="-27.1025" y2="371.1246" gradientTransform="matrix(24.4354 0 0 -24.4354 1062.8422 9175.1846)">
				<stop  offset="0" style="stop-color:#2E3191"/>
				<stop  offset="0.1404" style="stop-color:#2E3191"/>
				<stop  offset="0.288" style="stop-color:#2483C5"/>
				<stop  offset="0.3828" style="stop-color:#2472BA"/>
				<stop  offset="0.6871" style="stop-color:#224099"/>
				<stop  offset="0.9551" style="stop-color:#2483C5"/>
				<stop  offset="1" style="stop-color:#2483C5"/>
			</linearGradient>
			
				<rect x="365.9" y="92.8" style="clip-path:url(#SVGID_00000152968892579783078890000005505671076199098512_);fill:url(#SVGID_00000151525420792318058650000010119311516622776750_);" width="34.7" height="27.6"/>
		</g>
		<g>
			<defs>
				<polygon id="SVGID_00000114051674590518623530000008268103966795229849_" points="365.9,92.8 382.2,120.4 400.6,106 393.7,92.8 
									"/>
			</defs>
			<clipPath id="SVGID_00000104685241551641766680000018269888341297008559_">
				<use xlink:href="#SVGID_00000114051674590518623530000008268103966795229849_"  style="overflow:visible;"/>
			</clipPath>
			
				<linearGradient id="SVGID_00000170255203376313079780000005065366023520008636_" gradientUnits="userSpaceOnUse" x1="-72.7713" y1="373.8434" x2="-71.3512" y2="373.8434" gradientTransform="matrix(-1.091140e-09 -24.3034 -24.3034 1.091140e-09 9468.8994 -1641.2771)">
				<stop  offset="0" style="stop-color:#2E3191"/>
				<stop  offset="0.1404" style="stop-color:#2E3191"/>
				<stop  offset="0.3371" style="stop-color:#2483C5"/>
				<stop  offset="0.4808" style="stop-color:#2863B1"/>
				<stop  offset="0.7247" style="stop-color:#2E3191"/>
				<stop  offset="0.862" style="stop-color:#2865B2"/>
				<stop  offset="0.9551" style="stop-color:#2483C5"/>
				<stop  offset="1" style="stop-color:#2483C5"/>
			</linearGradient>
			
				<rect x="365.9" y="92.8" style="clip-path:url(#SVGID_00000104685241551641766680000018269888341297008559_);fill:url(#SVGID_00000170255203376313079780000005065366023520008636_);" width="34.7" height="27.6"/>
		</g>
		<g>
			<defs>
				<polygon id="SVGID_00000046339164194774031380000009694273994967696005_" points="372.2,95.7 385.2,118.1 397.9,108.1 
					391.5,95.7 				"/>
			</defs>
			<clipPath id="SVGID_00000070829294200906827580000016526159756088781497_">
				<use xlink:href="#SVGID_00000046339164194774031380000009694273994967696005_"  style="overflow:visible;"/>
			</clipPath>
			
				<linearGradient id="SVGID_00000172427439245454584290000008570932933335385519_" gradientUnits="userSpaceOnUse" x1="-63.0044" y1="382.6366" x2="-61.5854" y2="382.6366" gradientTransform="matrix(-1.876660e-09 -41.7996 -41.7996 1.876660e-09 16379.1074 -2478.5784)">
				<stop  offset="0" style="stop-color:#005AA9"/>
				<stop  offset="0.1404" style="stop-color:#005AA9"/>
				<stop  offset="0.5225" style="stop-color:#1E94D2"/>
				<stop  offset="0.5825" style="stop-color:#1A8CCD"/>
				<stop  offset="1" style="stop-color:#005AA9"/>
			</linearGradient>
			
				<rect x="372.2" y="95.7" style="clip-path:url(#SVGID_00000070829294200906827580000016526159756088781497_);fill:url(#SVGID_00000172427439245454584290000008570932933335385519_);" width="25.8" height="22.4"/>
		</g>
		<g>
			<defs>
				<polygon id="SVGID_00000176031839913961933440000011181929241077506969_" points="348.5,155 382.3,155 460.7,74.9 404.9,125.3 
					454.3,74.9 399.8,125.3 447.8,74.9 392.1,125.3 441.4,74.9 386.7,125.3 434,74.9 				"/>
			</defs>
			<clipPath id="SVGID_00000113354184374808831200000012458978190911554206_">
				<use xlink:href="#SVGID_00000176031839913961933440000011181929241077506969_"  style="overflow:visible;"/>
			</clipPath>
			
				<linearGradient id="SVGID_00000050632285923088152560000010371279342464542625_" gradientUnits="userSpaceOnUse" x1="-55.3131" y1="389.02" x2="-53.8929" y2="389.02" gradientTransform="matrix(-8.6144 -76.678 -83.6812 -19.3134 32487.8691 3441.4097)">
				<stop  offset="0" style="stop-color:#045BA7"/>
				<stop  offset="0.1404" style="stop-color:#045BA7"/>
				<stop  offset="0.5225" style="stop-color:#1E94D2"/>
				<stop  offset="0.5755" style="stop-color:#1B8DCD"/>
				<stop  offset="1" style="stop-color:#045BA7"/>
			</linearGradient>
			
				<polygon style="clip-path:url(#SVGID_00000113354184374808831200000012458978190911554206_);fill:url(#SVGID_00000050632285923088152560000010371279342464542625_);" points="
				348.5,155 336.2,46.1 460.7,74.9 472.9,183.8 			"/>
		</g>
		<path class="st18" d="M214.6,32.9v-0.1c0-11.4-8.3-18.1-21.3-18.1h-20c-1.9,0-3.5,1.5-3.6,3.4V66h14.2V53c0.2-0.8,0.8-1.5,1.6-1.7
			h5l9.9,14.7h16.4L205,48.7C210.9,45.8,214.6,40.5,214.6,32.9 M200.4,33.5c0,4-3.1,6.7-8.1,6.7h-8.5V28.9c0-1.2,1-2.2,2.2-2.2h6.2
			c5.1,0,8.2,2.3,8.2,6.7V33.5z"/>
		<path class="st18" d="M245.9,13.7c-15.8,0-27.7,11.9-27.7,26.7v0.1c0,14.8,11.7,26.6,27.5,26.6c15.8,0,27.7-12,27.7-26.7v-0.1
			C273.5,25.4,261.7,13.7,245.9,13.7 M259,40.4c0,7.4-5.2,13.7-13.1,13.7c-7.7,0-13.1-6.4-13.1-13.8v-0.1c0-7.4,5.2-13.7,13-13.7
			C253.6,26.5,259,32.9,259,40.4L259,40.4z"/>
		<path class="st18" d="M313.8,18v23.8l-21.1-27.1H283c-2,0-3.6,1.7-3.6,3.7V66h14V37.8L315.4,66h12.4V14.6h-10.4
			C315.4,14.6,313.9,16.1,313.8,18"/>
		<path class="st18" d="M354.5,14.3c-1.7,0.2-2.4,1.1-3,2.3L330.7,66h15l2.7-6.9c0.4-1,1.3-2.1,2.4-2.3H369l3.7,9.1H388l-21.8-51.6
			H354.5z M353.5,45.7l5.8-14.6l5.7,14.6H353.5z"/>
		<path class="st18" d="M121.4,18.2v9h15.4V66H151V28.8c0.3-0.9,1.1-1.6,2.1-1.6h13.3V14.6H125C123.1,14.6,121.5,16.2,121.4,18.2"/>
		<path class="st18" d="M52.5,14.6H34.1c-1.9,0-3.5,1.5-3.6,3.4V66h14.2V53c0.1-0.8,0.8-1.5,1.6-1.7h5.4c12.8,0,22.1-6.4,22.1-18.4
			v-0.1C73.8,21.3,65.4,14.6,52.5,14.6 M59.6,33.5c0,4-3.1,6.7-8.1,6.7h-6.8V26.6h6.7c5.1,0,8.2,2.3,8.2,6.7V33.5z"/>
		<path class="st18" d="M76.9,18.2V66h41.2V53.8H90.9v-6.2c0.1-1,0.8-1.7,1.8-1.9h22.2V34.5h-24v-5.9c0.1-0.9,0.8-1.7,1.7-1.9h25.5
			V14.6H80.5C78.5,14.6,77,16.2,76.9,18.2"/>
		<path class="st18" d="M412.1,34c-7.1-1.6-8.9-2.6-8.9-4.9v-0.2c0-1.9,1.7-3.3,5.1-3.3c3.1,0,6.5,0.8,9.9,2.4
			c0,0.1,0.1,0.1,0.1,0.1c0.3,0.1,0.6,0.3,0.9,0.5c1,0.4,2.1,0.8,3.5,0.5c1-0.2,1.7-1.1,2.6-2.2l4.4-6.3c-5.5-4.5-12.3-6.8-21.1-6.8
			c-12.3,0-19.9,6.9-19.9,16.4v0.1c0,10.5,8.5,13.6,19.4,16.1c7,1.6,8.6,2.8,8.6,4.9v0.1c0,2.2-2,3.5-5.8,3.5
			c-4.5,0-8.8-1.2-12.8-3.5c-1.2-0.6-2.6-1.4-4.4-1c-0.8,0.2-1.3,0.7-2,1.4l-5.4,6.4c6.3,5.6,15,8.5,24.1,8.5
			c12.4,0,20.7-6.2,20.7-16.7V50C431.2,40.4,423.9,36.6,412.1,34"/>
	</g>
</g>
</svg>
