<?xml version="1.0" encoding="utf-8"?>
<!-- Generator: Adobe Illustrator 26.4.1, SVG Export Plug-In . SVG Version: 6.00 Build 0)  -->
<svg version="1.1" id="Layer_1" xmlns="http://www.w3.org/2000/svg" xmlns:xlink="http://www.w3.org/1999/xlink" x="0px" y="0px"
	 viewBox="0 0 743 237.5" style="enable-background:new 0 0 743 237.5;" xml:space="preserve">
<style type="text/css">
	.st0{fill:#C61D23;}
	.st1{fill:#00A89C;}
	.st2{fill:url(#SVGID_1_);}
	.st3{fill:url(#SVGID_00000129909519446142700420000012526806844524645025_);}
	.st4{fill:url(#SVGID_00000083775552476305205360000015678281112820049590_);}
	.st5{fill:url(#SVGID_00000001629744848192089300000008270575102029070762_);}
	.st6{fill:url(#SVGID_00000003819504459750738550000005321734966178701466_);}
	.st7{fill:url(#SVGID_00000018939509692963281060000016701586974291630517_);}
	.st8{fill:url(#SVGID_00000105409926387056505510000003295618255266005652_);}
	.st9{fill:url(#SVGID_00000177483130568496334590000005334105069576841381_);}
	.st10{fill:url(#SVGID_00000138547414864629454660000015512943857457738371_);}
	.st11{fill:url(#SVGID_00000000904349844657909940000007981215388391744695_);}
	.st12{fill:url(#SVGID_00000095326824472054385790000004171966719377598363_);}
	
		.st13{clip-path:url(#SVGID_00000170985636131058944480000016526639242463738502_);fill:url(#SVGID_00000044893557488672112020000001062388123795043244_);}
	
		.st14{clip-path:url(#SVGID_00000132049620600628234120000001181819305297080994_);fill:url(#SVGID_00000140702189533719458520000012279791245862314924_);}
	.st15{fill:url(#SVGID_00000077282689040517151330000013978853324939765174_);}
	.st16{fill:url(#SVGID_00000075123131325433778120000007083270901349933454_);}
	.st17{fill:url(#SVGID_00000066479323206330663820000004908839554282889657_);}
	.st18{fill:url(#SVGID_00000155866994952344390790000003944220314678565769_);}
	.st19{fill:url(#SVGID_00000090978162038005770370000003226238835557457052_);}
	.st20{fill:url(#SVGID_00000010993449443326617830000009010674778104421262_);}
	.st21{fill:url(#SVGID_00000051358998195372506840000002051467568829209994_);}
	.st22{fill:url(#SVGID_00000027592246312693860070000011038714698678223268_);}
	.st23{fill:url(#SVGID_00000130621147679492386270000007405058928574964411_);}
	
		.st24{clip-path:url(#SVGID_00000013164161817348792210000008652045206457631662_);fill:url(#SVGID_00000003792426428031310680000007498791522940094604_);}
	
		.st25{clip-path:url(#SVGID_00000029756709619127047030000004379326698342303367_);fill:url(#SVGID_00000102520785356215777070000004332245423033397409_);}
	.st26{fill:url(#SVGID_00000041259878012428955180000005960808588588591268_);}
</style>
<g>
	<g>
		<path class="st0" d="M145.7,179.7h18.1c2.8,0,5.2,0.5,7.2,1.5c4.4,2.1,6.9,6.5,6.9,12c0,8-4.5,14.7-10.9,17.7
			c-2.3,1.1-4.8,1.6-7.3,1.6H151l-2.9,14.7h-11.6L145.7,179.7z M158.6,202.5c1.5,0,2.9-0.3,3.9-1c2.2-1.5,3.6-4.2,3.6-7.3
			c0-2.8-1.6-4.6-4.8-4.6h-5.8l-2.5,12.9L158.6,202.5L158.6,202.5z"/>
		<path class="st0" d="M182.9,193h11l-1.1,5.8c-0.2,1.1-0.5,2.1-0.5,2.1h0.1c2.2-4.6,7-8.5,11.9-8.5c1.1,0,2,0.1,2,0.1l-2.2,11.3
			c0,0-0.9-0.2-2.3-0.2c-3.5,0-10,2.7-11.7,11.9l-2.3,11.6h-11.5L182.9,193z"/>
		<path class="st0" d="M226,192.2c10.3,0,17.7,6,17.7,15.3c0,12.1-10.7,20.4-21.3,20.4c-10.3,0-17.7-6-17.7-15.3
			C204.7,200.6,215.3,192.2,226,192.2z M222.6,218.4c4.6,0,9.5-3.9,9.5-10.2c0-4-2.7-6.5-6.2-6.5c-4.5,0-9.6,4.1-9.6,10.4
			C216.3,216.1,219,218.4,222.6,218.4z"/>
		<path class="st0" d="M251.2,203.1H272l-1.9,10h-20.8L251.2,203.1z"/>
		<path class="st0" d="M285.9,179.7h17.7c2.6,0,5,0.3,7,1.1c4.4,1.8,7.1,5.6,7.1,10.9c0,5.6-2.7,13.2-9.9,16.1v0.1
			c0,0,0.5,0.8,1.2,2.9l6.1,16.4h-12.5l-5.3-16h-5.8l-3.1,16h-11.6L285.9,179.7z M298.4,201.2c4.1,0,7.4-2.6,7.4-7.3
			c0-2.8-1.9-4.2-4.8-4.2h-5.2l-2.3,11.5H298.4z"/>
		<path class="st0" d="M340.5,205.8h0.5c0.1-0.5,0.1-1.1,0.1-1.3c0-2.3-1.6-3.1-4.3-3.1c-4.3,0-9.9,3.1-9.9,3.1l-2.5-8.6
			c0,0,7-3.8,14.6-3.8c5.8,0,13.5,2.3,13.5,10.9c0,1-0.1,2.1-0.3,3.3l-4,20.8h-10.5l0.4-2.1c0.2-1.1,0.6-2.1,0.6-2.1h-0.1
			c0,0-3.7,5-10.1,5c-5.1,0-10-3.1-10-8.8C318.5,208.8,331.7,205.8,340.5,205.8z M332.9,219.2c3,0,6.2-3.3,6.8-6l0.1-0.7h-1.1
			c-2.5,0-8.6,0.5-8.6,4.6C330.1,218.2,330.9,219.2,332.9,219.2z"/>
		<path class="st0" d="M377.3,192.2c9.7,0,13.9,5,13.9,5l-5.8,7.2c0,0-3.1-2.7-7.6-2.7c-6.4,0-10.3,5.4-10.3,9.9
			c0,3.5,2.1,6.8,7,6.8c4.8,0,10.2-4.1,10.2-4.1l2.9,8.7c0,0-6,5-14.7,5c-11.3,0-17.1-7-17.1-15.7
			C355.9,202.5,364.3,192.2,377.3,192.2z"/>
		<path class="st0" d="M411.3,192.2c9.7,0,14.6,5.5,14.6,13.4c0,3.1-1.3,6.7-1.3,6.7H403c0,3.8,2.5,6.1,6.7,6.1
			c5,0,10.2-3.5,10.2-3.5l2.9,8.6c0,0-6,4.4-13.8,4.4c-11.7,0-17.5-6.9-17.5-14.9C391.6,201.1,400,192.2,411.3,192.2z M414.7,205.7
			c0,0,0.1-0.8,0.1-1.2c0-2.1-1.3-3.7-3.7-3.7c-3.3,0-5.4,2.2-6.5,4.9H414.7z"/>
	</g>
	<g>
		<path class="st0" d="M38.6,189H46l0.2,13.1c0,1.2-0.2,2.3-0.2,2.3h0.1c0,0,0.3-1.1,0.8-2.3l5.6-13.1h6.2l0.5,13.1
			c0,0.8-0.1,2.3-0.1,2.3h0.1c0,0,0.2-1.1,0.7-2.3l5.3-13.1h7.9l-10.5,22.1h-8.2l-0.5-10.2c0-1.2,0-2.4,0-2.4h-0.1
			c0,0-0.3,1.2-0.9,2.4l-4.5,10.2h-7.9L38.6,189z"/>
		<path class="st0" d="M75.7,189h7.4l-4.3,22.1h-7.4L75.7,189z M77.4,180.4h7.3l-1.1,5.8h-7.3L77.4,180.4z"/>
		<path class="st0" d="M86.2,202.5l1.5-7.3h-2.8l1.1-5.8h3l1.2-6.4h7.1l-1.2,6.4h4.7l-1.1,5.8H95l-1.2,6.3c-0.1,0.4-0.1,0.9-0.1,1.2
			c0,1.8,1.6,2.1,3.3,2.1c0.6,0,1.2,0,1.2,0l-1.2,6.4c0,0-1.1,0.1-2,0.1c-4.9,0-8.9-2-8.9-7.1C86,203.8,86.1,203.2,86.2,202.5z"/>
		<path class="st0" d="M107,180.4h7.4l-1.9,9.7c-0.2,1.1-0.4,1.9-0.4,1.9h0.1c1.2-2,4.2-3.5,7-3.5c3.8,0,7,1.7,7,6.3
			c0,0.7-0.1,1.5-0.3,2.4l-2.7,13.9h-7.4l2.5-12.7c0.1-0.5,0.1-1,0.1-1.3c0-1.3-0.6-1.9-2-1.9c-2.9,0-5.4,2.9-6,6.1l-1.9,9.8H101
			L107,180.4z"/>
	</g>
</g>
<g>
	<g>
		<path class="st1" d="M215.6,34.1L215.6,34.1c0-11.5-8.4-18.2-21.3-18.2h-20.1c-1.9,0-3.5,1.5-3.6,3.4v48h14.2v-13
			c0.2-0.8,0.8-1.5,1.6-1.8h5l9.9,14.7h16.5L206,49.9C211.9,47,215.6,41.7,215.6,34.1 M201.4,34.7c0,4-3.1,6.7-8.1,6.7h-8.5V30.1
			c0-1.2,1-2.2,2.2-2.2h6.2C198.3,27.9,201.4,30.2,201.4,34.7L201.4,34.7L201.4,34.7z"/>
		<path class="st1" d="M246.9,14.8c-15.8,0-27.7,12-27.7,26.7v0.1c0,14.8,11.7,26.6,27.6,26.6s27.7-12,27.7-26.7v-0.2
			C274.5,26.6,262.8,14.8,246.9,14.8 M260,41.6c0,7.4-5.2,13.7-13.1,13.7c-7.7,0-13.1-6.5-13.1-13.8v-0.2c0-7.4,5.2-13.7,13-13.7
			C254.7,27.7,260,34.1,260,41.6L260,41.6z"/>
		<path class="st1" d="M314.9,19.1v23.8l-21.1-27.2h-9.6c-2,0-3.6,1.7-3.6,3.7v47.7h14.1V39l22,28.2h12.4V15.8h-10.4
			C316.6,15.8,315.1,17.3,314.9,19.1"/>
		<path class="st1" d="M355.7,15.5c-1.7,0.2-2.4,1.1-3,2.3l-20.9,49.4h15l2.7-6.9c0.4-1,1.3-2.1,2.4-2.3h18.4l3.8,9.2h15.2
			l-21.9-51.7H355.7z M354.7,47l5.8-14.6l5.7,14.6H354.7z"/>
		<path class="st1" d="M122.2,19.3v9h15.4v38.9h14.3V30c0.3-0.9,1.1-1.6,2.1-1.6h13.3V15.8h-41.4C123.9,15.8,122.3,17.4,122.2,19.3"
			/>
		<path class="st1" d="M53.2,15.8H34.8c-1.9,0-3.5,1.5-3.6,3.4v48h14.2v-13c0.2-0.8,0.8-1.5,1.6-1.7h5.4c12.8,0,22.1-6.4,22.1-18.4
			V34C74.5,22.5,66.2,15.8,53.2,15.8 M60.3,34.7c0,4-3.1,6.7-8.1,6.7h-6.8V27.8h6.7C57.2,27.8,60.3,30.1,60.3,34.7L60.3,34.7z"/>
		<path class="st1" d="M77.6,19.4v47.8h41.3V55.1H91.7v-6.2c0.1-1,0.8-1.7,1.8-1.9h22.3V35.8h-24v-5.9c0.1-0.9,0.8-1.7,1.7-1.9H119
			V15.8H81.3C79.3,15.8,77.7,17.4,77.6,19.4"/>
		<path class="st1" d="M413.4,35.2c-7.1-1.6-8.9-2.6-8.9-4.9v-0.2c0-1.9,1.7-3.3,5.1-3.3c3.1,0,6.5,0.8,9.9,2.4l0,0
			c0,0.1,0.1,0.1,0.1,0.1c0.3,0.1,0.6,0.3,0.9,0.5c1,0.4,2.1,0.8,3.5,0.5c1-0.2,1.7-1.1,2.6-2.2l4.4-6.3c-5.6-4.5-12.4-6.9-21.1-6.9
			c-12.3,0-19.9,6.9-19.9,16.5v0.1c0,10.6,8.5,13.6,19.4,16.2c7,1.6,8.6,2.8,8.6,4.9v0.1c0,2.2-2,3.5-5.8,3.5
			c-4.5,0-8.8-1.2-12.9-3.5c-1.2-0.6-2.6-1.4-4.4-1c-0.8,0.2-1.3,0.7-2,1.4l-5.4,6.4c6.3,5.6,15,8.5,24.1,8.5
			c12.4,0,20.7-6.2,20.7-16.7v-0.1C432.6,41.6,425.2,37.8,413.4,35.2"/>
	</g>
	<g>
		<g>
			
				<linearGradient id="SVGID_1_" gradientUnits="userSpaceOnUse" x1="487.4026" y1="38.8505" x2="487.4026" y2="124.3136" gradientTransform="matrix(1 0 0 -1 0 197)">
				<stop  offset="0.1124" style="stop-color:#81181B"/>
				<stop  offset="0.2289" style="stop-color:#83181B"/>
				<stop  offset="0.2709" style="stop-color:#8A191D"/>
				<stop  offset="0.3008" style="stop-color:#951A1F"/>
				<stop  offset="0.325" style="stop-color:#A61C23"/>
				<stop  offset="0.3455" style="stop-color:#BC1E27"/>
				<stop  offset="0.3596" style="stop-color:#D0202B"/>
				<stop  offset="0.463" style="stop-color:#741118"/>
				<stop  offset="0.4831" style="stop-color:#620E14"/>
				<stop  offset="0.5654" style="stop-color:#661016"/>
				<stop  offset="0.6407" style="stop-color:#71151B"/>
				<stop  offset="0.7133" style="stop-color:#831F23"/>
				<stop  offset="0.7843" style="stop-color:#9D2C2F"/>
				<stop  offset="0.854" style="stop-color:#BF3C3E"/>
				<stop  offset="0.922" style="stop-color:#E85051"/>
				<stop  offset="0.9326" style="stop-color:#EF5454"/>
			</linearGradient>
			<path class="st2" d="M528.3,80.9c-3.7-5.4-11.2-8-22.9-8.2c-28.6-0.4-42.3,8-50.5,30.9c-2.7,7.5-4.6,15.2-0.6,20.7
				c3.2,4.3,9.4,6.2,18.9,5.8c5.9-0.3,11.4-2,16.5-5.1c-1,3.2-2,6.5-2,6.5c-3,8.7-5.2,11.3-9.6,11.3c-5.1,0.1-6.1-1-6.2-1.2
				c-0.2-0.2-0.2-0.8,0.3-2.3v-0.1l0.8-3.6h-27.8l-0.5,1.8c-1.6,6-1.2,10.5,1.5,13.9c4.1,5.2,12.5,7.2,29.2,6.8
				c31.9-0.7,41-19.2,50.3-45.2C530.9,98.9,533.3,88.1,528.3,80.9z M500,99.6c-3,9-5.3,13-11.2,13c-4,0-5.1-0.8-5.3-1.2
				c-0.9-1.2,0.5-5.1,1.9-8.8l0.5-1.5l0,0l0.3-0.7c3.1-8.7,4.7-12.5,12.7-12c1.1,0.1,2.5,0.3,3,0.9C502.9,90.9,500.9,97,500,99.6z"
				/>
			<g>
				
					<linearGradient id="SVGID_00000158717472566801014200000005798694709334775941_" gradientUnits="userSpaceOnUse" x1="564.3999" y1="38.8" x2="564.3999" y2="122.5" gradientTransform="matrix(1 0 0 -1 0 197)">
					<stop  offset="0.1124" style="stop-color:#81181B"/>
					<stop  offset="0.2289" style="stop-color:#83181B"/>
					<stop  offset="0.2709" style="stop-color:#8A191D"/>
					<stop  offset="0.3008" style="stop-color:#951A1F"/>
					<stop  offset="0.325" style="stop-color:#A61C23"/>
					<stop  offset="0.3455" style="stop-color:#BC1E27"/>
					<stop  offset="0.3596" style="stop-color:#D0202B"/>
					<stop  offset="0.463" style="stop-color:#741118"/>
					<stop  offset="0.4831" style="stop-color:#620E14"/>
					<stop  offset="0.5654" style="stop-color:#661016"/>
					<stop  offset="0.6407" style="stop-color:#71151B"/>
					<stop  offset="0.7133" style="stop-color:#831F23"/>
					<stop  offset="0.7843" style="stop-color:#9D2C2F"/>
					<stop  offset="0.854" style="stop-color:#BF3C3E"/>
					<stop  offset="0.922" style="stop-color:#E85051"/>
					<stop  offset="0.9326" style="stop-color:#EF5454"/>
				</linearGradient>
				<path style="fill:url(#SVGID_00000158717472566801014200000005798694709334775941_);" d="M606.6,74.5h-61.9l-7.3,18.4h3.5
					c0,0,24.7,0,33.5,0c-5.5,5.4-17.5,16.2-17.5,16.2c-10.6,10.1-30.5,33.5-36.4,45.7l-1.7,3.4h29.6l0.7-1.2
					c5.5-9.9,10.3-17.8,17.6-27.2c12.7-16.6,23.5-27.5,36.1-37.9l0.5-0.4l6.7-16.9L606.6,74.5L606.6,74.5z"/>
			</g>
			
				<linearGradient id="SVGID_00000140736061799312643360000015135076170525567877_" gradientUnits="userSpaceOnUse" x1="487.3942" y1="41.4788" x2="487.3942" y2="121.8329" gradientTransform="matrix(1 0 0 -1 0 197)">
				<stop  offset="0" style="stop-color:#E02629"/>
				<stop  offset="0.2" style="stop-color:#E3272A"/>
				<stop  offset="0.2676" style="stop-color:#E63531"/>
				<stop  offset="0.3945" style="stop-color:#ED5945"/>
				<stop  offset="0.4944" style="stop-color:#F37A56"/>
				<stop  offset="0.4997" style="stop-color:#F37855"/>
				<stop  offset="0.62" style="stop-color:#EC4D3E"/>
				<stop  offset="0.714" style="stop-color:#E83330"/>
				<stop  offset="0.7697" style="stop-color:#E7292B"/>
				<stop  offset="0.8269" style="stop-color:#E2292B"/>
				<stop  offset="0.8913" style="stop-color:#D52729"/>
				<stop  offset="0.9588" style="stop-color:#BE2528"/>
				<stop  offset="1" style="stop-color:#AD2326"/>
			</linearGradient>
			<path style="fill:url(#SVGID_00000140736061799312643360000015135076170525567877_);" d="M470.1,137.9l-0.1,0.5
				c-1.1,2.9-1.6,6.9,8.2,6.7c6.2-0.1,8.8-4.3,11.8-13l3.4-11.2h-2.1c-5.3,4-11.3,6.4-18.3,6.8c-23.3,1.1-19.6-12.8-15.9-23.1
				c7.6-21.3,19.6-29.6,48.2-29.3c27.6,0.3,26.2,14.8,18.2,36.9c-8.9,24.7-17.4,42.7-48.1,43.4c-22,0.5-32.3-2.9-28.3-17.6
				L470.1,137.9L470.1,137.9z M483.6,100.1c-3.2,9-5.9,14.7,5.2,14.7c8.1,0,10.8-6.4,13.6-14.6c3.2-9.4,3.7-14-3.3-14.4
				C488.6,85.3,486.6,91.6,483.6,100.1z"/>
			
				<linearGradient id="SVGID_00000112608452425030176930000017853695150797962414_" gradientUnits="userSpaceOnUse" x1="564.6" y1="41.5" x2="564.6" y2="120.2" gradientTransform="matrix(1 0 0 -1 0 197)">
				<stop  offset="0" style="stop-color:#E02629"/>
				<stop  offset="0.2" style="stop-color:#E3272A"/>
				<stop  offset="0.2676" style="stop-color:#E63531"/>
				<stop  offset="0.3945" style="stop-color:#ED5945"/>
				<stop  offset="0.4944" style="stop-color:#F37A56"/>
				<stop  offset="0.4997" style="stop-color:#F37855"/>
				<stop  offset="0.62" style="stop-color:#EC4D3E"/>
				<stop  offset="0.714" style="stop-color:#E83330"/>
				<stop  offset="0.7697" style="stop-color:#E7292B"/>
				<stop  offset="0.8269" style="stop-color:#E2292B"/>
				<stop  offset="0.8913" style="stop-color:#D52729"/>
				<stop  offset="0.9588" style="stop-color:#BE2528"/>
				<stop  offset="1" style="stop-color:#AD2326"/>
			</linearGradient>
			<path style="fill:url(#SVGID_00000112608452425030176930000017853695150797962414_);" d="M546.4,76.8c-0.6,1.4-4.4,11.1-5.4,13.6
				c3.2,0,39.4,0,39.4,0l-21.8,20.2c-10.9,10.4-30.4,33.5-35.9,44.9c3.1,0,23,0,24.5,0c5.5-9.9,10.5-18,17.8-27.4
				c12.8-16.6,23.8-27.6,36.4-38.2c0.2-0.5,4.1-10.6,5.1-13C603.4,76.8,548.2,76.8,546.4,76.8z"/>
			<g>
				
					<linearGradient id="SVGID_00000000225132920826309540000011640509960074569871_" gradientUnits="userSpaceOnUse" x1="614.9" y1="119.95" x2="735.4" y2="119.95" gradientTransform="matrix(1 0 0 -1 0 197)">
					<stop  offset="0" style="stop-color:#E02629"/>
					<stop  offset="0.3483" style="stop-color:#E3272A"/>
					<stop  offset="0.4451" style="stop-color:#E63531"/>
					<stop  offset="0.6267" style="stop-color:#ED5945"/>
					<stop  offset="0.7697" style="stop-color:#F37A56"/>
				</linearGradient>
				<polygon style="fill:url(#SVGID_00000000225132920826309540000011640509960074569871_);" points="614.9,79.6 735.4,74.5 
					616.9,74.5 				"/>
				
					<linearGradient id="SVGID_00000165923703950715671580000017745168092055346870_" gradientUnits="userSpaceOnUse" x1="611.5" y1="111.5" x2="725.4" y2="111.5" gradientTransform="matrix(1 0 0 -1 0 197)">
					<stop  offset="0" style="stop-color:#E02629"/>
					<stop  offset="0.3483" style="stop-color:#E3272A"/>
					<stop  offset="0.4451" style="stop-color:#E63531"/>
					<stop  offset="0.6267" style="stop-color:#ED5945"/>
					<stop  offset="0.7697" style="stop-color:#F37A56"/>
				</linearGradient>
				<polygon style="fill:url(#SVGID_00000165923703950715671580000017745168092055346870_);" points="611.5,88.1 725.4,82.9 
					613.6,82.9 				"/>
				
					<linearGradient id="SVGID_00000170248277204473056260000014259091619405770113_" gradientUnits="userSpaceOnUse" x1="606.1" y1="103" x2="715.3" y2="103" gradientTransform="matrix(1 0 0 -1 0 197)">
					<stop  offset="0" style="stop-color:#E02629"/>
					<stop  offset="0.3483" style="stop-color:#E3272A"/>
					<stop  offset="0.4451" style="stop-color:#E63531"/>
					<stop  offset="0.6267" style="stop-color:#ED5945"/>
					<stop  offset="0.7697" style="stop-color:#F37A56"/>
				</linearGradient>
				<polygon style="fill:url(#SVGID_00000170248277204473056260000014259091619405770113_);" points="606.1,96.6 715.3,91.4 
					610.2,91.4 609.1,94 				"/>
				
					<linearGradient id="SVGID_00000002377506320841215900000009365552076379891895_" gradientUnits="userSpaceOnUse" x1="596.8" y1="94.55" x2="704.7" y2="94.55" gradientTransform="matrix(1 0 0 -1 0 197)">
					<stop  offset="0" style="stop-color:#E02629"/>
					<stop  offset="0.3483" style="stop-color:#E3272A"/>
					<stop  offset="0.4451" style="stop-color:#E63531"/>
					<stop  offset="0.6267" style="stop-color:#ED5945"/>
					<stop  offset="0.7697" style="stop-color:#F37A56"/>
				</linearGradient>
				<path style="fill:url(#SVGID_00000002377506320841215900000009365552076379891895_);" d="M596.8,105l107.9-5.1H602.3
					C602.3,99.9,597.6,104.2,596.8,105z"/>
				
					<linearGradient id="SVGID_00000088819960673687442040000010447958015350645128_" gradientUnits="userSpaceOnUse" x1="588.6" y1="86.05" x2="694" y2="86.05" gradientTransform="matrix(1 0 0 -1 0 197)">
					<stop  offset="0" style="stop-color:#E02629"/>
					<stop  offset="0.3483" style="stop-color:#E3272A"/>
					<stop  offset="0.4451" style="stop-color:#E63531"/>
					<stop  offset="0.6267" style="stop-color:#ED5945"/>
					<stop  offset="0.7697" style="stop-color:#F37A56"/>
				</linearGradient>
				<path style="fill:url(#SVGID_00000088819960673687442040000010447958015350645128_);" d="M588.6,113.5l105.4-5.1H593.4
					C593.4,108.4,589.9,112,588.6,113.5z"/>
				
					<linearGradient id="SVGID_00000181070806928646237320000015149855896949318830_" gradientUnits="userSpaceOnUse" x1="581.1" y1="77.55" x2="683.4" y2="77.55" gradientTransform="matrix(1 0 0 -1 0 197)">
					<stop  offset="0" style="stop-color:#E02629"/>
					<stop  offset="0.3483" style="stop-color:#E3272A"/>
					<stop  offset="0.4451" style="stop-color:#E63531"/>
					<stop  offset="0.6267" style="stop-color:#ED5945"/>
					<stop  offset="0.7697" style="stop-color:#F37A56"/>
				</linearGradient>
				<polygon style="fill:url(#SVGID_00000181070806928646237320000015149855896949318830_);" points="581.1,122 683.4,116.9 
					585.6,116.9 				"/>
				
					<linearGradient id="SVGID_00000111179931652074402530000016364784883796431245_" gradientUnits="userSpaceOnUse" x1="574.3" y1="69.05" x2="672.8" y2="69.05" gradientTransform="matrix(1 0 0 -1 0 197)">
					<stop  offset="0" style="stop-color:#E02629"/>
					<stop  offset="0.3483" style="stop-color:#E3272A"/>
					<stop  offset="0.4451" style="stop-color:#E63531"/>
					<stop  offset="0.6267" style="stop-color:#ED5945"/>
					<stop  offset="0.7697" style="stop-color:#F37A56"/>
				</linearGradient>
				<polygon style="fill:url(#SVGID_00000111179931652074402530000016364784883796431245_);" points="574.3,130.5 672.8,125.4 
					578.4,125.4 				"/>
			</g>
		</g>
		<g>
			<g>
				<g>
					<g>
						<defs>
							<polygon id="SVGID_00000117677501563979464350000014903613999875538846_" points="427.1,158.1 407.1,125.3 391.7,143.7 
								399.5,158.1 							"/>
						</defs>
						<clipPath id="SVGID_00000084498993990232611750000012370003246377976470_">
							<use xlink:href="#SVGID_00000117677501563979464350000014903613999875538846_"  style="overflow:visible;"/>
						</clipPath>
						
							<linearGradient id="SVGID_00000048477435820350589070000007243613039688447394_" gradientUnits="userSpaceOnUse" x1="394.5" y1="38.8" x2="394.5" y2="104.1" gradientTransform="matrix(1 0 0 -1 0 197)">
							<stop  offset="0.1404" style="stop-color:#2B3C8E"/>
							<stop  offset="0.288" style="stop-color:#1E80C3"/>
							<stop  offset="0.3201" style="stop-color:#1E7BBF"/>
							<stop  offset="0.6871" style="stop-color:#1C4993"/>
							<stop  offset="0.9551" style="stop-color:#1E80C3"/>
						</linearGradient>
						
							<path style="clip-path:url(#SVGID_00000084498993990232611750000012370003246377976470_);fill:url(#SVGID_00000048477435820350589070000007243613039688447394_);" d="
							M406,123.5l21.1,34.7h-27.6L382,125.9L406,123.5z M406,124.7l-16.5-31.8h-27.6l20.1,34.2L406,124.7z"/>
					</g>
					<g>
						<defs>
							<polygon id="SVGID_00000121995426563260936150000008587919546161287095_" points="427.1,158.1 407.1,125.3 391.7,143.7 
								399.5,158.1 							"/>
						</defs>
						<clipPath id="SVGID_00000026162821128570306890000009398191702656308391_">
							<use xlink:href="#SVGID_00000121995426563260936150000008587919546161287095_"  style="overflow:visible;"/>
						</clipPath>
						
							<linearGradient id="SVGID_00000044155761990174661970000003864220562725501072_" gradientUnits="userSpaceOnUse" x1="394.45" y1="42.4" x2="394.45" y2="101.2" gradientTransform="matrix(1 0 0 -1 0 197)">
							<stop  offset="0.1404" style="stop-color:#1060A8"/>
							<stop  offset="0.5225" style="stop-color:#2290CC"/>
							<stop  offset="1" style="stop-color:#1060A8"/>
						</linearGradient>
						
							<path style="clip-path:url(#SVGID_00000026162821128570306890000009398191702656308391_);fill:url(#SVGID_00000044155761990174661970000003864220562725501072_);" d="
							M400.9,122l19.8,32.6h-19.2L386,126.3L400.9,122z M402.1,124.3l-14.7-28.5h-19.2l19,32.8L402.1,124.3z"/>
					</g>
				</g>
				
					<linearGradient id="SVGID_00000093144971335339137740000010587707016088565391_" gradientUnits="userSpaceOnUse" x1="278.9" y1="38.9" x2="278.9" y2="104.1557" gradientTransform="matrix(1 0 0 -1 0 197)">
					<stop  offset="0.1404" style="stop-color:#2B3C8E"/>
					<stop  offset="0.288" style="stop-color:#1E80C3"/>
					<stop  offset="0.3201" style="stop-color:#1E7BBF"/>
					<stop  offset="0.6871" style="stop-color:#1C4993"/>
					<stop  offset="0.9551" style="stop-color:#1E80C3"/>
				</linearGradient>
				<path style="fill:url(#SVGID_00000093144971335339137740000010587707016088565391_);" d="M221.9,158.1h20.9l27-40.2l0,0
					l-11.2,40.2h45.7l5.2-10.2H334l0.2,10.2h40.5l3.5-3.6h-22l-2.9-61.7h-35.5L285,146.6l11.5-53.9h-28.3
					c-11,16.2-24.9,37.3-24.9,37.3s2.4-22.8,3.6-37.3h-29.5L179.6,158h25l21.6-40.2L221.9,158.1z M334,133.5h-16.6l13.5-25.7h2.9
					L334,133.5z"/>
				
					<linearGradient id="SVGID_00000112619610848009651870000004236540403982941601_" gradientUnits="userSpaceOnUse" x1="-126.0498" y1="35.377" x2="-126.0498" y2="104.3736" gradientTransform="matrix(1 0 -0.1123 -1 186.6514 197)">
					<stop  offset="0" style="stop-color:#2D368F"/>
					<stop  offset="0.1404" style="stop-color:#2D368F"/>
					<stop  offset="0.288" style="stop-color:#2483C5"/>
					<stop  offset="0.3645" style="stop-color:#2376BC"/>
					<stop  offset="0.6871" style="stop-color:#204496"/>
					<stop  offset="0.9551" style="stop-color:#2483C5"/>
					<stop  offset="1" style="stop-color:#2483C5"/>
				</linearGradient>
				<path style="fill:url(#SVGID_00000112619610848009651870000004236540403982941601_);" d="M79,92.9H33.5
					c-5.4,15.9-22,65.3-22,65.3h22.9l6.8-20.1h24.2c20.8,0,23-4.3,28.3-22.4C97.8,101.9,93,92.9,79,92.9z M67.8,122.8H46.2l5-15
					h21.6L67.8,122.8z"/>
				
					<linearGradient id="SVGID_00000009548507656688906230000014513490708976647337_" gradientUnits="userSpaceOnUse" x1="-125.3267" y1="42.4" x2="-125.3267" y2="101.2" gradientTransform="matrix(1 0 -0.1123 -1 186.6514 197)">
					<stop  offset="0" style="stop-color:#045BA7"/>
					<stop  offset="0.1404" style="stop-color:#045BA7"/>
					<stop  offset="0.5225" style="stop-color:#2193D1"/>
					<stop  offset="0.5683" style="stop-color:#1E8DCD"/>
					<stop  offset="1" style="stop-color:#045BA7"/>
				</linearGradient>
				<path style="fill:url(#SVGID_00000009548507656688906230000014513490708976647337_);" d="M35.8,95.8h43.4c5,0,8.5,1.2,10.4,3.7
					c1,1.3,1.6,2.9,1.9,5c0.3,2.7-0.1,6-1.2,9.7c-5.3,17.8-6.8,20.3-25.5,20.3H38.5c0,0-5.8,17.1-6.8,20.1H16L35.8,95.8z
					 M77.6,104.9h-5H48.4l-7,20.8h29.3L77.6,104.9z"/>
				
					<linearGradient id="SVGID_00000116216486575790422020000005241302022444951962_" gradientUnits="userSpaceOnUse" x1="89.0618" y1="42.4" x2="89.0618" y2="101.2" gradientTransform="matrix(1 0 -0.1123 -1 186.6514 197)">
					<stop  offset="0" style="stop-color:#045BA7"/>
					<stop  offset="0.1404" style="stop-color:#045BA7"/>
					<stop  offset="0.5225" style="stop-color:#2193D1"/>
					<stop  offset="0.5683" style="stop-color:#1E8DCD"/>
					<stop  offset="1" style="stop-color:#045BA7"/>
				</linearGradient>
				<path style="fill:url(#SVGID_00000116216486575790422020000005241302022444951962_);" d="M337.3,154.6c0-3-0.1-10.1-0.1-10.1
					h-29.9c0,0-4.1,8-5.2,10.1c-3,0-32.4,0-39.2,0c1.9-6.6,11.7-41.8,11.7-41.8h-5.7L241,154.6h-15.5l4.5-41.8h-5l-22.4,41.8h-17.5
					l34.1-58.8h24l-4,41.4h3l27.6-41.4h22.6c-1.3,6.7-11.3,53.9-11.3,53.9h5.9c0,0,31.2-51.3,32.7-53.9c2.7,0,25.3,0,30.5,0
					l2.6,58.8L337.3,154.6L337.3,154.6z M328.3,104.9l-16.4,31.5h25.2l-0.5-31.5H328.3z"/>
				
					<linearGradient id="SVGID_00000160171315965531878110000011825131273392455591_" gradientUnits="userSpaceOnUse" x1="178.4" y1="38.9" x2="178.4" y2="104.2816" gradientTransform="matrix(1 0 0 -1 0 197)">
					<stop  offset="0.1404" style="stop-color:#2B3C8E"/>
					<stop  offset="0.288" style="stop-color:#1E80C3"/>
					<stop  offset="0.3201" style="stop-color:#1E7BBF"/>
					<stop  offset="0.6871" style="stop-color:#1C4993"/>
					<stop  offset="0.9551" style="stop-color:#1E80C3"/>
				</linearGradient>
				<polygon style="fill:url(#SVGID_00000160171315965531878110000011825131273392455591_);" points="153.1,158.1 177.5,158.1 
					203.7,92.9 179.2,92.9 				"/>
				
					<linearGradient id="SVGID_00000113355021652693750160000017269399794291348922_" gradientUnits="userSpaceOnUse" x1="0.1118" y1="28.192" x2="0.1118" y2="108.646" gradientTransform="matrix(1 0 -0.1123 -1 186.6514 197)">
					<stop  offset="0" style="stop-color:#045BA7"/>
					<stop  offset="0.1404" style="stop-color:#045BA7"/>
					<stop  offset="0.5225" style="stop-color:#2193D1"/>
					<stop  offset="0.5683" style="stop-color:#1E8DCD"/>
					<stop  offset="1" style="stop-color:#045BA7"/>
				</linearGradient>
				<path style="fill:url(#SVGID_00000113355021652693750160000017269399794291348922_);" d="M158.2,154.6c2.7,0,9.2,0,16.7,0
					l24.3-58.8h-17.6L158.2,154.6z"/>
				
					<linearGradient id="SVGID_00000051344824972585156790000003510129678123991698_" gradientUnits="userSpaceOnUse" x1="-54.0559" y1="35.7359" x2="-54.0559" y2="104.5564" gradientTransform="matrix(1 0 -0.1123 -1 186.6514 197)">
					<stop  offset="0.1404" style="stop-color:#2B3C8E"/>
					<stop  offset="0.288" style="stop-color:#1E80C3"/>
					<stop  offset="0.3201" style="stop-color:#1E7BBF"/>
					<stop  offset="0.6871" style="stop-color:#1C4993"/>
					<stop  offset="0.9551" style="stop-color:#1E80C3"/>
				</linearGradient>
				<path style="fill:url(#SVGID_00000051344824972585156790000003510129678123991698_);" d="M83.5,158.1h22.9l9.2-27.4l15.5,27.4
					h24.5l-13.5-20.2c16.6-0.7,18.7-6,23.5-22.3c4.2-13.8-0.6-22.8-14.6-22.8h-45.6L83.5,158.1z M118.3,122.8l5.1-15H145l-5,15
					H118.3z"/>
				
					<linearGradient id="SVGID_00000168092457010111177960000000780670451462730420_" gradientUnits="userSpaceOnUse" x1="-53.2651" y1="42.4" x2="-53.2651" y2="101.2286" gradientTransform="matrix(1 0 -0.1123 -1 186.6514 197)">
					<stop  offset="0" style="stop-color:#045BA7"/>
					<stop  offset="0.1404" style="stop-color:#045BA7"/>
					<stop  offset="0.5225" style="stop-color:#2193D1"/>
					<stop  offset="0.5683" style="stop-color:#1E8DCD"/>
					<stop  offset="1" style="stop-color:#045BA7"/>
				</linearGradient>
				<path style="fill:url(#SVGID_00000168092457010111177960000000780670451462730420_);" d="M149.7,154.6
					c-0.2-0.4-13.5-20.1-13.5-20.1h5c14.5-0.7,16.2-3.4,21.2-20.4c1.1-3.7,1.5-7,1.2-9.7c-0.2-2-0.9-3.7-1.9-5
					c-1.9-2.4-5.4-3.7-10.4-3.7h-43.4C106.8,99,90.6,147,88,154.5h15.8c0.9-2.6,7.2-21.4,9.7-29l0,0l0.6-1.8c0,0,0,0,0-0.1l0.2-0.6
					c0.1-0.4,0.2-0.6,0.2-0.6l0,0l6-17.7h24.2h5l-6.9,20.8h-26.4c4.2,7.5,14.9,26.3,16.4,29h16.9V154.6z"/>
				<g>
					<g>
						
							<linearGradient id="SVGID_00000098215006385223477900000005047363898404249741_" gradientUnits="userSpaceOnUse" x1="361.9421" y1="90.4" x2="396.3421" y2="90.4" gradientTransform="matrix(1 0 0 -1 0 197)">
							<stop  offset="0.1404" style="stop-color:#2B3C8E"/>
							<stop  offset="0.288" style="stop-color:#1E80C3"/>
							<stop  offset="0.3201" style="stop-color:#1E7BBF"/>
							<stop  offset="0.6871" style="stop-color:#1C4993"/>
							<stop  offset="0.9551" style="stop-color:#1E80C3"/>
						</linearGradient>
						<polygon id="SVGID_28_" style="fill:url(#SVGID_00000098215006385223477900000005047363898404249741_);" points="396.3,106 
							389.5,92.9 361.9,92.9 378.1,120.3 						"/>
					</g>
					<g>
						<defs>
							<polygon id="SVGID_00000113336852724251631300000015455019612147116174_" points="396.3,106 389.5,92.9 361.9,92.9 
								378.1,120.3 							"/>
						</defs>
						<clipPath id="SVGID_00000097462033237354269490000003898597240901937070_">
							<use xlink:href="#SVGID_00000113336852724251631300000015455019612147116174_"  style="overflow:visible;"/>
						</clipPath>
						
							<linearGradient id="SVGID_00000080888524389472634280000010358202476912117174_" gradientUnits="userSpaceOnUse" x1="383.95" y1="69.9" x2="383.95" y2="104.1" gradientTransform="matrix(1 0 0 -1 0 197)">
							<stop  offset="0.1404" style="stop-color:#2B3C8E"/>
							<stop  offset="0.3371" style="stop-color:#1E80C3"/>
							<stop  offset="0.4333" style="stop-color:#216EB5"/>
							<stop  offset="0.7247" style="stop-color:#2B3C8E"/>
							<stop  offset="0.8447" style="stop-color:#2462AB"/>
							<stop  offset="0.9551" style="stop-color:#1E80C3"/>
						</linearGradient>
						
							<path style="clip-path:url(#SVGID_00000097462033237354269490000003898597240901937070_);fill:url(#SVGID_00000080888524389472634280000010358202476912117174_);" d="
							M406,124.7l-16.5-31.8h-27.6l20.1,34.2L406,124.7z"/>
					</g>
					<g>
						<defs>
							<polygon id="SVGID_00000005976886549814214930000007938235584204021434_" points="396.3,106 389.5,92.9 361.9,92.9 
								378.1,120.3 							"/>
						</defs>
						<clipPath id="SVGID_00000123413913886330646110000001778886273099487619_">
							<use xlink:href="#SVGID_00000005976886549814214930000007938235584204021434_"  style="overflow:visible;"/>
						</clipPath>
						
							<linearGradient id="SVGID_00000039825007981977000360000003533994694759112833_" gradientUnits="userSpaceOnUse" x1="394.45" y1="42.4" x2="394.45" y2="101.2" gradientTransform="matrix(1 0 0 -1 0 197)">
							<stop  offset="0" style="stop-color:#045BA7"/>
							<stop  offset="0.1404" style="stop-color:#045BA7"/>
							<stop  offset="0.5225" style="stop-color:#2193D1"/>
							<stop  offset="0.5683" style="stop-color:#1E8DCD"/>
							<stop  offset="1" style="stop-color:#045BA7"/>
						</linearGradient>
						
							<path style="clip-path:url(#SVGID_00000123413913886330646110000001778886273099487619_);fill:url(#SVGID_00000039825007981977000360000003533994694759112833_);" d="
							M400.9,122l19.8,32.6h-19.2L386,126.3L400.9,122z M402.1,124.3l-14.7-28.5h-19.2l19,32.8L402.1,124.3z"/>
					</g>
				</g>
				
					<linearGradient id="SVGID_00000182495329880854838260000014041528381582219659_" gradientUnits="userSpaceOnUse" x1="-201.1268" y1="28.4996" x2="-174.0183" y2="136.3531" gradientTransform="matrix(1 5.000000e-04 -0.3637 -1.0002 617.8511 197.4366)">
					<stop  offset="0" style="stop-color:#025CA6"/>
					<stop  offset="0.1404" style="stop-color:#025CA6"/>
					<stop  offset="0.5225" style="stop-color:#2193D1"/>
					<stop  offset="0.5609" style="stop-color:#1E8ECD"/>
					<stop  offset="1" style="stop-color:#025CA6"/>
				</linearGradient>
				<polygon style="fill:url(#SVGID_00000182495329880854838260000014041528381582219659_);" points="378.2,154.6 455.9,75.2 
					400.6,125.2 449.6,75.2 395.6,125.2 443.1,75.2 387.9,125.2 436.8,75.2 382.6,125.2 429.5,75.1 344.7,154.6 				"/>
			</g>
		</g>
	</g>
</g>
</svg>
